<?xml version="1.0" encoding="utf-8"?>
<!-- Generator: Adobe Illustrator 16.0.3, SVG Export Plug-In . SVG Version: 6.00 Build 0)  -->
<!DOCTYPE svg PUBLIC "-//W3C//DTD SVG 1.1//EN" "http://www.w3.org/Graphics/SVG/1.1/DTD/svg11.dtd">
<svg version="1.1" id="LogoType" xmlns="http://www.w3.org/2000/svg" xmlns:xlink="http://www.w3.org/1999/xlink" x="0px" y="0px"
	 width="800px" height="300px" viewBox="-5.5 46.5 800 300" enable-background="new -5.5 46.5 800 300" xml:space="preserve">
<g>
	<path fill="#666666" d="M27.189,230.26c0-36.12,21.414-66.821,62.692-66.821c20.64,0,30.443,4.386,38.699,9.545l-2.838,27.348
		c-10.578-6.966-20.897-10.578-33.282-10.578c-20.641,0-32.507,16.512-32.507,40.506c0,23.993,11.868,40.506,32.507,40.506
		c12.385,0,22.704-3.613,33.282-10.578l2.838,27.348c-8.256,5.16-18.06,9.546-38.699,9.546
		C48.604,297.08,27.189,266.379,27.189,230.26z"/>
	<path fill="#666666" d="M254.77,297.08h-11.61c-14.448,0-23.994-5.934-28.896-14.964c-8.515,9.546-23.994,14.964-39.475,14.964
		c-20.641,0-37.409-14.189-37.409-38.699c0-36.377,48.245-45.406,72.497-46.182c-0.773-14.706-6.708-21.155-23.22-21.155
		c-11.609,0-21.671,3.096-35.345,9.804l-2.838-26.058c15.479-7.482,30.959-11.352,46.955-11.352
		c28.896,0,46.696,14.447,46.696,51.856v34.83c0,19.351,2.063,20.64,11.353,20.64h4.127L254.77,297.08z M210.135,233.871
		c-18.06,0.773-39.215,7.998-39.215,23.22c0,10.577,5.16,15.479,17.286,15.479c5.676,0,15.222-2.838,21.93-9.288L210.135,233.871
		L210.135,233.871z"/>
	<path fill="#666666" d="M338.229,193.624h-11.867c-10.578,0-19.866,5.676-23.479,12.899V294.5h-31.99V165.502h29.927l0.773,13.674
		c6.708-6.966,19.608-15.737,34.313-15.737h8.514L338.229,193.624z"/>
	<path fill="#00A0FF" d="M399.219,191.818V294.5h-31.992V191.818H348.91l2.838-26.316h15.479v-30.701
		c0-16.77,10.063-33.797,30.961-33.797c17.026,0,20.64,0.774,29.152,1.548l-2.838,26.574c-5.676-1.29-11.609-1.29-13.674-1.29
		c-9.546,0-11.609,4.386-11.609,20.124v17.543h28.379v26.316L399.219,191.818L399.219,191.818z"/>
	<path fill="#00A0FF" d="M507.654,193.624h-11.868c-10.577,0-19.865,5.676-23.479,12.899V294.5h-31.99V165.502h29.928l0.772,13.674
		c6.708-6.966,19.607-15.737,34.313-15.737h8.514L507.654,193.624z"/>
	<path fill="#00A0FF" d="M546.921,236.967c3.612,23.994,21.414,33.799,38.441,33.799c12.126,0,29.153-4.902,39.73-10.578
		l1.548,27.09c-9.804,5.158-24.768,9.804-43.085,9.804c-46.696,0-69.917-30.701-69.917-66.82c0-35.862,22.188-66.821,61.919-66.821
		c32.509,0,56.761,21.929,56.761,55.985c0,5.677-0.774,11.353-2.064,17.543L546.921,236.967L546.921,236.967z M547.695,215.295
		h52.114c0-11.609-5.934-25.541-23.22-25.541C560.079,189.754,550.791,200.59,547.695,215.295z"/>
	<path fill="#00A0FF" d="M676.669,236.967c3.612,23.994,21.414,33.799,38.441,33.799c12.126,0,29.153-4.902,39.73-10.578
		l1.548,27.09c-9.804,5.158-24.768,9.804-43.085,9.804c-46.696,0-69.917-30.701-69.917-66.82c0-35.862,22.188-66.821,61.919-66.821
		c32.509,0,56.761,21.929,56.761,55.985c0,5.677-0.774,11.353-2.064,17.543L676.669,236.967L676.669,236.967z M677.443,215.295
		h52.114c0-11.609-5.934-25.541-23.22-25.541C689.827,189.754,680.539,200.59,677.443,215.295z"/>
</g>
</svg>
